<?xml version="1.0" encoding="UTF-8"?>
<svg xmlns="http://www.w3.org/2000/svg" xmlns:xlink="http://www.w3.org/1999/xlink" width="173pt" height="40pt" viewBox="0 0 173 40" version="1.1">
<g id="surface1">
<rect x="0" y="0" width="173" height="40" style="fill:rgb(92.941176%,12.156863%,14.117647%);fill-opacity:1;stroke:none;"/>
<path style=" stroke:none;fill-rule:nonzero;fill:rgb(100%,100%,100%);fill-opacity:1;" d="M 32.511719 15.820312 C 31.511719 15.820312 30.699219 16.148438 30.699219 16.546875 C 30.699219 16.960938 31.492188 17.285156 32.511719 17.285156 C 33.519531 17.285156 34.34375 16.953125 34.34375 16.546875 C 34.34375 16.140625 33.539062 15.820312 32.511719 15.820312 Z M 32.511719 15.820312 "/>
<path style=" stroke:none;fill-rule:nonzero;fill:rgb(100%,100%,100%);fill-opacity:1;" d="M 80.703125 19.476562 C 80.703125 18.285156 79.167969 17.710938 76.011719 17.710938 C 74.238281 17.710938 72.625 17.914062 71.347656 18.261719 L 72.425781 19.113281 C 73.460938 18.855469 74.394531 18.738281 75.359375 18.738281 C 76.320312 18.738281 77.472656 18.867188 77.472656 19.476562 L 77.472656 19.542969 L 75.570312 19.570312 C 72.4375 19.613281 70.636719 20.195312 70.636719 21.167969 C 70.636719 22.09375 72.238281 22.738281 74.53125 22.738281 C 75.800781 22.738281 76.878906 22.582031 77.816406 22.253906 C 78.046875 22.511719 78.351562 22.640625 79.132812 22.640625 L 80.972656 22.640625 C 80.792969 22.390625 80.703125 22.105469 80.703125 21.683594 Z M 77.46875 21.414062 C 76.949219 21.589844 76.308594 21.679688 75.546875 21.679688 C 74.46875 21.679688 73.824219 21.457031 73.824219 21.078125 C 73.824219 20.84375 74.042969 20.523438 75.964844 20.5 L 77.472656 20.480469 L 77.472656 21.414062 Z M 77.46875 21.414062 "/>
<path style=" stroke:none;fill-rule:nonzero;fill:rgb(100%,100%,100%);fill-opacity:1;" d="M 30.917969 22.640625 L 34.105469 22.640625 L 34.105469 17.816406 L 30.917969 17.816406 Z M 30.917969 22.640625 "/>
<path style=" stroke:none;fill-rule:nonzero;fill:rgb(100%,100%,100%);fill-opacity:1;" d="M 23.96875 22.640625 L 25.074219 22.640625 L 29.957031 17.816406 L 26.769531 17.816406 L 23.933594 20.941406 L 21.148438 17.816406 L 17.941406 17.816406 L 22.222656 22.117188 C 22.550781 22.449219 23.039062 22.640625 23.96875 22.640625 Z M 23.96875 22.640625 "/>
<path style=" stroke:none;fill-rule:nonzero;fill:rgb(100%,100%,100%);fill-opacity:1;" d="M 58.546875 22.640625 L 58.546875 19.457031 C 58.546875 18.167969 56.605469 17.710938 54.792969 17.710938 C 53.425781 17.710938 52.207031 17.886719 50.855469 18.289062 L 50.839844 18.261719 C 50.570312 17.964844 49.996094 17.820312 49.066406 17.820312 L 47.847656 17.820312 L 47.847656 22.640625 L 51.03125 22.640625 L 51.03125 19.316406 C 52.058594 19 52.964844 18.851562 53.804688 18.851562 C 54.878906 18.851562 55.359375 19.148438 55.359375 19.816406 L 55.359375 22.640625 Z M 58.546875 22.640625 "/>
<path style=" stroke:none;fill-rule:nonzero;fill:rgb(100%,100%,100%);fill-opacity:1;" d="M 11.398438 15.9375 L 5.089844 22.640625 L 8.316406 22.640625 L 9.796875 20.996094 L 15.296875 20.996094 L 16.871094 22.640625 L 20.25 22.640625 L 13.714844 15.9375 Z M 10.792969 19.898438 L 12.105469 18.453125 C 12.304688 18.222656 12.464844 18.03125 12.578125 17.863281 C 12.703125 18.046875 12.863281 18.25 13.058594 18.472656 L 14.277344 19.898438 Z M 10.792969 19.898438 "/>
<path style=" stroke:none;fill-rule:nonzero;fill:rgb(100%,100%,100%);fill-opacity:1;" d="M 69.957031 22.242188 L 69.121094 21.3125 C 68.453125 21.472656 67.484375 21.660156 66.347656 21.660156 C 63.984375 21.660156 63.148438 20.871094 63.148438 20.195312 C 63.148438 19.351562 64.503906 18.738281 66.371094 18.738281 C 67.457031 18.738281 68.511719 18.886719 69.339844 19.140625 L 69.445312 18.0625 C 68.425781 17.828125 67.355469 17.710938 66.03125 17.710938 C 64.34375 17.710938 62.800781 17.964844 61.691406 18.433594 C 60.570312 18.898438 59.957031 19.546875 59.957031 20.253906 C 59.957031 20.941406 60.480469 21.5625 61.421875 22 C 62.449219 22.484375 63.945312 22.738281 65.742188 22.738281 C 67.425781 22.738281 69.109375 22.480469 69.957031 22.242188 Z M 69.957031 22.242188 "/>
<path style=" stroke:none;fill-rule:nonzero;fill:rgb(100%,100%,100%);fill-opacity:1;" d="M 46.011719 22.640625 C 45.832031 22.390625 45.742188 22.105469 45.742188 21.683594 L 45.742188 19.476562 C 45.742188 18.285156 44.207031 17.710938 41.046875 17.710938 C 39.277344 17.710938 37.664062 17.914062 36.386719 18.261719 L 37.464844 19.113281 C 38.5 18.855469 39.433594 18.738281 40.394531 18.738281 C 41.359375 18.738281 42.507812 18.867188 42.507812 19.476562 L 42.507812 19.542969 L 40.609375 19.570312 C 37.476562 19.613281 35.675781 20.195312 35.675781 21.167969 C 35.675781 22.09375 37.28125 22.738281 39.570312 22.738281 C 40.84375 22.738281 41.914062 22.582031 42.851562 22.253906 C 43.089844 22.511719 43.390625 22.640625 44.171875 22.640625 Z M 42.507812 21.414062 C 41.992188 21.589844 41.34375 21.679688 40.589844 21.679688 C 39.507812 21.679688 38.863281 21.457031 38.863281 21.078125 C 38.863281 20.84375 39.082031 20.523438 41.003906 20.5 L 42.507812 20.480469 Z M 42.507812 21.414062 "/>
<path style=" stroke:none;fill-rule:nonzero;fill:rgb(100%,100%,100%);fill-opacity:1;" d="M 94.695312 20.242188 C 94.695312 20.316406 94.671875 20.394531 94.671875 20.472656 L 84.085938 20.472656 C 84.367188 21.558594 86.375 22.269531 89.039062 22.269531 C 90.957031 22.269531 92.40625 21.902344 93.082031 21.394531 L 94.109375 21.644531 C 93.152344 22.296875 91.328125 22.730469 89.015625 22.730469 C 85.417969 22.730469 82.871094 21.671875 82.871094 20.222656 C 82.871094 18.808594 85.347656 17.714844 88.921875 17.714844 C 92.476562 17.714844 94.695312 18.925781 94.695312 20.242188 Z M 84.085938 20 L 93.480469 20 C 93.222656 18.828125 91.210938 18.175781 88.921875 18.175781 C 86.257812 18.175781 84.320312 18.933594 84.085938 20 Z M 84.085938 20 "/>
<path style=" stroke:none;fill-rule:nonzero;fill:rgb(100%,100%,100%);fill-opacity:1;" d="M 121.109375 17.714844 C 118.84375 17.714844 117.042969 18.195312 116.085938 18.933594 L 116.085938 17.152344 C 116.011719 17.253906 115.902344 17.34375 115.761719 17.429688 C 115.542969 17.554688 115.253906 17.65625 114.917969 17.730469 L 114.917969 23.828125 C 115.53125 23.972656 115.972656 24.226562 116.085938 24.523438 L 116.085938 21.507812 C 117.042969 22.25 118.84375 22.730469 121.109375 22.730469 C 124.449219 22.730469 127.160156 21.644531 127.160156 20.222656 C 127.160156 18.800781 124.449219 17.714844 121.109375 17.714844 Z M 121.039062 22.269531 C 118.257812 22.269531 116.082031 21.363281 116.082031 20.222656 C 116.082031 19.078125 118.257812 18.175781 121.039062 18.175781 C 123.820312 18.175781 125.992188 19.078125 125.992188 20.222656 C 125.992188 21.363281 123.820312 22.269531 121.039062 22.269531 Z M 121.039062 22.269531 "/>
<path style=" stroke:none;fill-rule:nonzero;fill:rgb(100%,100%,100%);fill-opacity:1;" d="M 131.15625 18.761719 L 131.15625 17.820312 L 129.988281 17.820312 L 129.988281 22.621094 L 131.15625 22.621094 L 131.15625 19.953125 C 131.15625 18.722656 133.046875 18.214844 135.058594 18.214844 L 135.058594 17.753906 C 133.46875 17.753906 131.949219 18.003906 131.15625 18.761719 Z M 131.15625 18.761719 "/>
<path style=" stroke:none;fill-rule:nonzero;fill:rgb(100%,100%,100%);fill-opacity:1;" d="M 141.972656 17.714844 C 138.398438 17.714844 135.921875 18.808594 135.921875 20.222656 C 135.921875 21.671875 138.46875 22.730469 142.066406 22.730469 C 144.378906 22.730469 146.203125 22.296875 147.160156 21.644531 L 146.132812 21.394531 C 145.457031 21.902344 144.007812 22.269531 142.089844 22.269531 C 139.425781 22.269531 137.417969 21.558594 137.136719 20.472656 L 147.722656 20.472656 C 147.722656 20.394531 147.746094 20.316406 147.746094 20.242188 C 147.746094 18.925781 145.523438 17.714844 141.972656 17.714844 Z M 137.136719 20 C 137.371094 18.933594 139.308594 18.175781 141.972656 18.175781 C 144.261719 18.175781 146.273438 18.828125 146.527344 20 Z M 137.136719 20 "/>
<path style=" stroke:none;fill-rule:nonzero;fill:rgb(100%,100%,100%);fill-opacity:1;" d="M 150.804688 19.078125 C 150.804688 18.503906 152.089844 18.175781 153.609375 18.175781 C 154.894531 18.175781 156.109375 18.40625 156.601562 18.90625 L 157.582031 18.675781 C 156.949219 18.089844 155.5 17.714844 153.609375 17.714844 C 151.226562 17.714844 149.636719 18.320312 149.636719 19.078125 C 149.636719 20.808594 156.714844 20.058594 156.714844 21.363281 C 156.714844 21.96875 155.335938 22.269531 153.703125 22.269531 C 151.949219 22.269531 150.6875 21.941406 150.269531 21.421875 L 149.261719 21.664062 C 149.824219 22.277344 151.367188 22.730469 153.703125 22.730469 C 156.203125 22.730469 157.886719 22.152344 157.886719 21.363281 C 157.886719 19.605469 150.804688 20.367188 150.804688 19.078125 Z M 150.804688 19.078125 "/>
<path style=" stroke:none;fill-rule:nonzero;fill:rgb(100%,100%,100%);fill-opacity:1;" d="M 160.804688 19.078125 C 160.804688 18.503906 162.089844 18.175781 163.609375 18.175781 C 164.894531 18.175781 166.109375 18.40625 166.601562 18.90625 L 167.582031 18.675781 C 166.953125 18.089844 165.503906 17.714844 163.609375 17.714844 C 161.226562 17.714844 159.636719 18.320312 159.636719 19.078125 C 159.636719 20.808594 166.71875 20.058594 166.71875 21.363281 C 166.71875 21.96875 165.339844 22.269531 163.703125 22.269531 C 161.949219 22.269531 160.6875 21.941406 160.269531 21.421875 L 159.261719 21.664062 C 159.824219 22.277344 161.367188 22.730469 163.703125 22.730469 C 166.203125 22.730469 167.886719 22.152344 167.886719 21.363281 C 167.886719 19.605469 160.804688 20.367188 160.804688 19.078125 Z M 160.804688 19.078125 "/>
<path style=" stroke:none;fill-rule:nonzero;fill:rgb(100%,100%,100%);fill-opacity:1;" d="M 105.148438 19.90625 C 104.976562 19.835938 104.800781 19.765625 104.621094 19.691406 C 104.800781 19.765625 104.976562 19.835938 105.148438 19.90625 Z M 105.148438 19.90625 "/>
<path style=" stroke:none;fill-rule:nonzero;fill:rgb(100%,100%,100%);fill-opacity:1;" d="M 113.824219 24.0625 C 113.703125 24.0625 113.589844 24.070312 113.476562 24.078125 C 113.058594 24.121094 112.714844 24.234375 112.523438 24.386719 C 112.417969 24.472656 112.351562 24.566406 112.351562 24.664062 C 112.351562 25 113.011719 25.269531 113.824219 25.269531 C 113.851562 25.269531 113.878906 25.269531 113.910156 25.265625 C 114.347656 25.257812 114.730469 25.167969 114.984375 25.035156 C 115.175781 24.933594 115.296875 24.804688 115.296875 24.664062 C 115.296875 24.332031 114.636719 24.0625 113.824219 24.0625 Z M 113.824219 24.0625 "/>
<path style=" stroke:none;fill-rule:nonzero;fill:rgb(100%,100%,100%);fill-opacity:1;" d="M 113.476562 24.078125 C 111.367188 22.800781 108.640625 21.359375 105.148438 19.90625 C 104.976562 19.835938 104.800781 19.761719 104.625 19.691406 C 104.675781 19.675781 104.722656 19.660156 104.773438 19.640625 C 105.007812 19.566406 105.25 19.488281 105.5 19.410156 C 105.492188 19.410156 105.488281 19.410156 105.480469 19.410156 C 105.488281 19.410156 105.492188 19.410156 105.5 19.410156 C 107.5 18.777344 109.992188 18.066406 112.984375 17.355469 C 113.222656 17.421875 113.511719 17.464844 113.824219 17.464844 C 114.636719 17.464844 115.296875 17.195312 115.296875 16.859375 C 115.296875 16.851562 115.289062 16.839844 115.289062 16.832031 C 115.265625 16.652344 115.058594 16.492188 114.734375 16.390625 C 114.484375 16.308594 114.171875 16.253906 113.824219 16.253906 C 113.011719 16.253906 112.351562 16.527344 112.351562 16.859375 C 112.351562 16.882812 112.363281 16.90625 112.367188 16.925781 C 109.8125 17.535156 107.089844 18.269531 104.3125 19.15625 L 104.3125 19.566406 C 104.246094 19.539062 104.183594 19.511719 104.117188 19.484375 C 104.042969 19.457031 103.96875 19.429688 103.894531 19.398438 C 103.847656 19.378906 103.796875 19.359375 103.746094 19.339844 C 103.542969 19.261719 103.34375 19.183594 103.140625 19.105469 C 98.921875 17.480469 94.746094 16.269531 91.125 15.371094 C 91.066406 15.554688 90.824219 15.710938 90.46875 15.804688 C 93.613281 16.589844 97.800781 17.757812 102.136719 19.40625 C 102.355469 19.488281 102.574219 19.574219 102.792969 19.65625 C 102.542969 19.742188 102.300781 19.828125 102.054688 19.910156 C 99.210938 20.898438 96.789062 21.898438 94.746094 22.84375 C 94.609375 22.824219 94.460938 22.8125 94.304688 22.8125 C 93.492188 22.8125 92.835938 23.082031 92.835938 23.417969 C 92.835938 23.75 93.492188 24.019531 94.304688 24.019531 C 95.121094 24.019531 95.777344 23.75 95.777344 23.417969 C 95.777344 23.335938 95.738281 23.257812 95.667969 23.1875 C 97.652344 22.269531 100.125 21.230469 103.140625 20.1875 L 103.140625 19.792969 C 103.175781 19.808594 103.210938 19.820312 103.25 19.835938 C 103.304688 19.855469 103.359375 19.878906 103.417969 19.902344 C 103.503906 19.9375 103.589844 19.972656 103.675781 20.007812 C 103.886719 20.089844 104.097656 20.179688 104.3125 20.269531 C 106.769531 21.285156 109.664062 22.648438 112.523438 24.386719 C 112.71875 24.234375 113.058594 24.121094 113.476562 24.078125 Z M 113.476562 24.078125 "/>
<path style=" stroke:none;fill-rule:nonzero;fill:rgb(100%,100%,100%);fill-opacity:1;" d="M 91.125 15.371094 C 91.132812 15.347656 91.144531 15.324219 91.144531 15.296875 C 91.144531 14.964844 90.484375 14.691406 89.671875 14.691406 C 89.335938 14.691406 89.03125 14.742188 88.78125 14.820312 C 88.457031 14.921875 88.238281 15.078125 88.210938 15.257812 C 88.210938 15.269531 88.199219 15.285156 88.199219 15.296875 C 88.199219 15.632812 88.859375 15.902344 89.671875 15.902344 C 89.964844 15.902344 90.238281 15.867188 90.46875 15.804688 C 90.824219 15.710938 91.070312 15.554688 91.125 15.371094 Z M 91.125 15.371094 "/>
<path style=" stroke:none;fill-rule:nonzero;fill:rgb(100%,100%,100%);fill-opacity:1;" d="M 103.417969 19.902344 C 103.359375 19.878906 103.304688 19.855469 103.25 19.835938 C 103.210938 19.820312 103.175781 19.808594 103.140625 19.792969 L 103.140625 21.832031 C 103.320312 21.800781 103.519531 21.78125 103.726562 21.78125 C 103.9375 21.78125 104.132812 21.800781 104.3125 21.832031 L 104.3125 20.269531 C 104.097656 20.179688 103.886719 20.089844 103.675781 20.007812 C 103.589844 19.972656 103.503906 19.9375 103.417969 19.902344 Z M 103.417969 19.902344 "/>
<path style=" stroke:none;fill-rule:nonzero;fill:rgb(100%,100%,100%);fill-opacity:1;" d="M 103.140625 21.835938 C 102.621094 21.925781 102.253906 22.140625 102.253906 22.386719 C 102.253906 22.722656 102.914062 22.992188 103.726562 22.992188 C 104.539062 22.992188 105.199219 22.722656 105.199219 22.386719 C 105.199219 22.140625 104.835938 21.925781 104.3125 21.835938 C 104.132812 21.800781 103.9375 21.785156 103.726562 21.785156 C 103.519531 21.785156 103.320312 21.800781 103.140625 21.835938 Z M 103.140625 21.835938 "/>
<path style=" stroke:none;fill-rule:nonzero;fill:rgb(100%,100%,100%);fill-opacity:1;" d="M 103.894531 19.398438 C 103.96875 19.429688 104.042969 19.457031 104.117188 19.484375 C 104.183594 19.511719 104.246094 19.539062 104.3125 19.566406 L 104.3125 17.46875 C 104.132812 17.503906 103.9375 17.523438 103.726562 17.523438 C 103.71875 17.523438 103.710938 17.523438 103.703125 17.523438 C 103.691406 17.523438 103.679688 17.523438 103.667969 17.523438 C 103.480469 17.523438 103.304688 17.507812 103.140625 17.480469 L 103.140625 19.105469 C 103.34375 19.183594 103.546875 19.261719 103.75 19.339844 C 103.796875 19.359375 103.847656 19.378906 103.894531 19.398438 Z M 103.894531 19.398438 "/>
<path style=" stroke:none;fill-rule:nonzero;fill:rgb(100%,100%,100%);fill-opacity:1;" d="M 104.3125 17.46875 C 104.332031 17.464844 104.351562 17.464844 104.375 17.460938 C 104.859375 17.359375 105.199219 17.15625 105.199219 16.917969 C 105.199219 16.585938 104.539062 16.3125 103.726562 16.3125 C 102.914062 16.3125 102.253906 16.585938 102.253906 16.917969 C 102.253906 17.175781 102.648438 17.394531 103.199219 17.480469 C 103.359375 17.507812 103.527344 17.519531 103.703125 17.523438 C 103.710938 17.523438 103.71875 17.523438 103.726562 17.523438 C 103.9375 17.523438 104.132812 17.503906 104.3125 17.46875 Z M 104.3125 17.46875 "/>
<path style=" stroke:none;fill-rule:nonzero;fill:rgb(100%,100%,100%);fill-opacity:1;" d="M 105.5 19.410156 C 105.25 19.488281 105.007812 19.566406 104.773438 19.640625 C 104.722656 19.660156 104.675781 19.675781 104.625 19.691406 C 104.800781 19.765625 104.976562 19.835938 105.148438 19.90625 C 105.601562 19.910156 106.050781 19.914062 106.515625 19.921875 C 106.871094 19.925781 107.246094 19.933594 107.625 19.945312 C 107.851562 20.160156 108.371094 20.3125 108.980469 20.3125 C 109.082031 20.3125 109.183594 20.308594 109.277344 20.300781 C 109.949219 20.242188 110.453125 20 110.453125 19.707031 C 110.453125 19.476562 110.128906 19.277344 109.660156 19.175781 C 109.457031 19.128906 109.226562 19.101562 108.980469 19.101562 C 108.394531 19.101562 107.898438 19.242188 107.660156 19.445312 C 107.308594 19.4375 106.957031 19.429688 106.597656 19.421875 C 106.226562 19.417969 105.863281 19.414062 105.5 19.410156 Z M 105.5 19.410156 "/>
<path style=" stroke:none;fill-rule:nonzero;fill:rgb(100%,100%,100%);fill-opacity:1;" d="M 99.6875 19.441406 C 99.449219 19.242188 98.953125 19.101562 98.371094 19.101562 C 98.144531 19.101562 97.933594 19.125 97.742188 19.164062 C 97.246094 19.261719 96.902344 19.46875 96.902344 19.707031 C 96.902344 20.042969 97.5625 20.3125 98.375 20.3125 C 98.425781 20.3125 98.472656 20.308594 98.519531 20.308594 C 99.058594 20.285156 99.507812 20.144531 99.71875 19.953125 C 100.480469 19.933594 101.257812 19.921875 102.058594 19.910156 C 102.300781 19.828125 102.542969 19.742188 102.792969 19.660156 C 102.574219 19.574219 102.355469 19.488281 102.136719 19.40625 C 101.304688 19.410156 100.488281 19.425781 99.6875 19.441406 Z M 99.6875 19.441406 "/>
</g>
</svg>
